<svg viewBox="0 0 88 88" xmlns="http://www.w3.org/2000/svg"><g data-name="Idea"><path d="M44 9a1 1 0 0 0 1-1V2a1 1 0 0 0-2 0v6a1 1 0 0 0 1 1ZM36.305 9.145a1 1 0 1 0 1.931-.518l-.517-1.932a1 1 0 0 0-1.932.518ZM24.908 16.322a1 1 0 0 0 1.414-1.414l-1.414-1.414a1 1 0 1 0-1.414 1.414ZM19.145 26.305l-1.932-.518a1 1 0 0 0-.518 1.932l1.932.517a1 1 0 1 0 .517-1.931ZM18.627 39.764l-1.932.517a1 1 0 1 0 .518 1.932l1.932-.518a1 1 0 1 0-.518-1.931ZM24.908 51.678l-1.414 1.414a1 1 0 1 0 1.414 1.414l1.414-1.414a1 1 0 1 0-1.414-1.414ZM30.134 11.983a1 1 0 1 0 1.732-1l-3-5.196a1 1 0 1 0-1.732 1ZM21.983 20.134l-5.196-3a1 1 0 1 0-1 1.732l5.196 3a1 1 0 1 0 1-1.732ZM19 34a1 1 0 0 0-1-1h-6a1 1 0 0 0 0 2h6a1 1 0 0 0 1-1ZM20.983 46.134l-5.196 3a1 1 0 0 0 1 1.732l5.196-3a1 1 0 1 0-1-1.732ZM31.5 55.65a1 1 0 0 0-1.366.366l-3 5.196a1 1 0 0 0 1.732 1l3-5.196a1 1 0 0 0-.366-1.366ZM50.47 9.852a.998.998 0 0 0 1.225-.708l.518-1.931a1 1 0 0 0-1.932-.518l-.517 1.932a1 1 0 0 0 .707 1.225ZM62.385 16.615a.997.997 0 0 0 .707-.293l1.414-1.414a1 1 0 1 0-1.414-1.414l-1.414 1.414a1 1 0 0 0 .707 1.707ZM69.373 28.236l1.932-.517a1 1 0 0 0-.518-1.932l-1.931.518a1 1 0 1 0 .517 1.931ZM68.148 40.47a1 1 0 0 0 .707 1.225l1.932.518a1 1 0 1 0 .518-1.932l-1.932-.517a1 1 0 0 0-1.225.707ZM63.092 51.678a1 1 0 1 0-1.414 1.414l1.414 1.414a1 1 0 1 0 1.414-1.414ZM56.5 12.35a1 1 0 0 0 1.366-.366l3-5.196a1 1 0 0 0-1.732-1l-3 5.196a1 1 0 0 0 .366 1.366ZM66.518 22a.995.995 0 0 0 .499-.134l5.196-3a1 1 0 0 0-1-1.732l-5.196 3a1 1 0 0 0 .5 1.866ZM76 33h-6a1 1 0 0 0 0 2h6a1 1 0 0 0 0-2ZM72.213 49.134l-5.196-3a1 1 0 0 0-1 1.732l5.196 3a1 1 0 1 0 1-1.732ZM57.866 56.017a1 1 0 1 0-1.732 1l3 5.196a1 1 0 0 0 1.732-1ZM37 59h14v2H37zM47 63h4v15h-4zM43 63h2v15h-2zM43 40h2v17h-2zM38 32a3 3 0 0 0 0 6h3v-3a3.003 3.003 0 0 0-3-3Z" fill="#052e6c" class="fill-000000"></path><path d="M44 13a21.002 21.002 0 0 0-7 40.802V57h4V40h-3a5 5 0 1 1 5-5v3h2v-3a5 5 0 1 1 5 5h-3v17h4v-3.198A21.002 21.002 0 0 0 44 13ZM37 63h4v15h-4z" fill="#052e6c" class="fill-000000"></path><path d="M53 35a3 3 0 0 0-6 0v3h3a3.003 3.003 0 0 0 3-3ZM43.241 86.65a1 1 0 0 0 1.518 0L50.46 80H37.54Z" fill="#052e6c" class="fill-000000"></path></g></svg>