<svg id="visual" viewBox="0 0 900 600" width="900" height="600" xmlns="http://www.w3.org/2000/svg" xmlns:xlink="http://www.w3.org/1999/xlink" version="1.1"><rect x="0" y="0" width="900" height="600" fill="#f8f8f8"></rect><path d="M0 64L18.8 67.7C37.7 71.3 75.3 78.7 112.8 86.8C150.3 95 187.7 104 225.2 102.3C262.7 100.7 300.3 88.3 337.8 87.8C375.3 87.3 412.7 98.7 450.2 98.2C487.7 97.7 525.3 85.3 562.8 81.2C600.3 77 637.7 81 675.2 82.7C712.7 84.3 750.3 83.7 787.8 80.8C825.3 78 862.7 73 881.3 70.5L900 68L900 0L881.3 0C862.7 0 825.3 0 787.8 0C750.3 0 712.7 0 675.2 0C637.7 0 600.3 0 562.8 0C525.3 0 487.7 0 450.2 0C412.7 0 375.3 0 337.8 0C300.3 0 262.7 0 225.2 0C187.7 0 150.3 0 112.8 0C75.3 0 37.7 0 18.8 0L0 0Z" fill="#ffd138" stroke-linecap="round" stroke-linejoin="miter"></path></svg>